<svg xmlns="http://www.w3.org/2000/svg" width="71.794" height="71.189" viewBox="0 0 71.794 71.189">
  <path id="Path_1218" data-name="Path 1218" d="M74.294,44.616a12.734,12.734,0,0,0-8.313-11.94V30.484a27.584,27.584,0,0,0-55.168,0v2.192a12.755,12.755,0,0,0,4.459,24.712h4.61A2.193,2.193,0,0,0,22.073,55.2V34.036a2.193,2.193,0,0,0-2.192-2.192H17.766v-1.36a20.631,20.631,0,0,1,41.263,0v1.36H56.912a2.193,2.193,0,0,0-2.192,2.192V55.2a2.193,2.193,0,0,0,2.192,2.192h.982a15.153,15.153,0,0,1-12.772,9.069,3.249,3.249,0,0,0-3.174-2.569H34.769a3.226,3.226,0,0,0-3.25,3.25v3.7a3.226,3.226,0,0,0,3.25,3.25h7.179a3.179,3.179,0,0,0,3.174-2.721A20.052,20.052,0,0,0,63.185,57.237,12.789,12.789,0,0,0,74.294,44.616Z" transform="translate(-2.5 -2.9)" fill="#597ed1"/>
</svg>
