<svg xmlns="http://www.w3.org/2000/svg" width="249.451" height="26.37" viewBox="0 0 249.451 26.37">
  <g id="Group_2" data-name="Group 2" transform="translate(-777.753 -507.739)">
    <g id="Group_1" data-name="Group 1" transform="translate(777.753 507.739)">
      <path id="Path_1" data-name="Path 1" d="M226.363,285.664a1.205,1.205,0,0,1,.238-.832.774.774,0,0,1,.594-.257.8.8,0,0,1,.615.257,1.281,1.281,0,0,1,.238.873v2.854a1.241,1.241,0,0,1-.238.853.8.8,0,0,1-.615.258.783.783,0,0,1-.565-.218,1.077,1.077,0,0,1-.267-.714,2.655,2.655,0,0,0-1.229-1.962,7.5,7.5,0,0,0-4.3-1.111,7.254,7.254,0,0,0-4.342,1.13,2.388,2.388,0,0,0-1.17,1.9,2.3,2.3,0,0,0,1.388,1.983,10.289,10.289,0,0,0,3.608.853,24.423,24.423,0,0,1,4.818.852A6.1,6.1,0,0,1,228,294.309a4.283,4.283,0,0,1,.942,2.657,4.805,4.805,0,0,1-2.042,3.777,9.333,9.333,0,0,1-5.988,1.655,10.068,10.068,0,0,1-6.463-2,2.952,2.952,0,0,1-.079.872.731.731,0,0,1-.289.337.817.817,0,0,1-.465.139.776.776,0,0,1-.595-.257,1.245,1.245,0,0,1-.238-.853V297.2a1.277,1.277,0,0,1,.228-.852.766.766,0,0,1,.6-.259.825.825,0,0,1,.6.248.9.9,0,0,1,.247.664,2.49,2.49,0,0,0,.456,1.527,5.017,5.017,0,0,0,2.211,1.576,9.8,9.8,0,0,0,3.718.624,7.942,7.942,0,0,0,4.837-1.21,3.322,3.322,0,0,0,1.587-2.557,2.8,2.8,0,0,0-1.607-2.478,12.234,12.234,0,0,0-4.729-1.249,19.2,19.2,0,0,1-4.451-.832,4.518,4.518,0,0,1-2.1-1.547,3.69,3.69,0,0,1-.754-2.22,3.826,3.826,0,0,1,2.1-3.4,9.587,9.587,0,0,1,5.016-1.259A8.864,8.864,0,0,1,226.363,285.664Z" transform="translate(-212.781 -276.029)" fill="#313031"/>
      <path id="Path_2" data-name="Path 2" d="M255.962,281.313v15.5h6.543a1.314,1.314,0,0,1,.872.229.77.77,0,0,1,.257.6.78.78,0,0,1-.257.595,1.276,1.276,0,0,1-.872.238H247.754a1.237,1.237,0,0,1-.852-.238.778.778,0,0,1-.257-.595.768.768,0,0,1,.257-.6,1.274,1.274,0,0,1,.852-.229H254.3V283h-4.858a1.28,1.28,0,0,1-.863-.238.765.765,0,0,1-.267-.6.8.8,0,0,1,.257-.614,1.281,1.281,0,0,1,.873-.237Zm-.06-8.546v4.3h-2.458v-4.3Z" transform="translate(-222.633 -272.767)" fill="#313031"/>
      <path id="Path_3" data-name="Path 3" d="M283.4,284.575v2.518a12.011,12.011,0,0,1,3.153-2.439,7.258,7.258,0,0,1,3.172-.675,7.426,7.426,0,0,1,3.47.813,5.7,5.7,0,0,1,2.012,1.973,5.1,5.1,0,0,1,.9,2.825v10.488h1.408a1.277,1.277,0,0,1,.852.229.768.768,0,0,1,.257.6.777.777,0,0,1-.257.595,1.24,1.24,0,0,1-.852.238h-4.461a1.275,1.275,0,0,1-.873-.238.777.777,0,0,1-.257-.595.768.768,0,0,1,.257-.6,1.313,1.313,0,0,1,.873-.229h1.388V289.868a3.95,3.95,0,0,0-1.289-2.984,4.818,4.818,0,0,0-3.45-1.22,5.835,5.835,0,0,0-2.855.665,15.339,15.339,0,0,0-3.45,3.3v10.448h1.884a1.275,1.275,0,0,1,.852.229.769.769,0,0,1,.258.6.778.778,0,0,1-.258.595,1.238,1.238,0,0,1-.852.238h-5.432a1.239,1.239,0,0,1-.853-.238.775.775,0,0,1-.258-.595.766.766,0,0,1,.258-.6,1.275,1.275,0,0,1,.853-.229h1.883V286.26h-1.408a1.239,1.239,0,0,1-.852-.238.8.8,0,0,1-.257-.615.774.774,0,0,1,.257-.595,1.243,1.243,0,0,1,.852-.238Z" transform="translate(-231.971 -276.029)" fill="#313031"/>
      <path id="Path_4" data-name="Path 4" d="M320.04,282.346h9.041a1.241,1.241,0,0,1,.852.237.8.8,0,0,1,.259.614.777.777,0,0,1-.259.6,1.236,1.236,0,0,1-.852.238H320.04v11.083a3.03,3.03,0,0,0,1.16,2.419,5.172,5.172,0,0,0,3.4.971,14.667,14.667,0,0,0,3.648-.505,12.3,12.3,0,0,0,3.053-1.14,1.31,1.31,0,0,1,.654-.257.75.75,0,0,1,.555.247.818.818,0,0,1,.238.585.777.777,0,0,1-.257.556,8.3,8.3,0,0,1-3.083,1.417,15.765,15.765,0,0,1-4.689.763,7.258,7.258,0,0,1-4.639-1.368,4.458,4.458,0,0,1-1.725-3.687V284.031h-3.073a1.237,1.237,0,0,1-.852-.238.8.8,0,0,1-.258-.615.775.775,0,0,1,.258-.595,1.241,1.241,0,0,1,.852-.237h3.073v-4.917a1.243,1.243,0,0,1,.237-.852.779.779,0,0,1,.595-.258.8.8,0,0,1,.615.258,1.24,1.24,0,0,1,.238.852Z" transform="translate(-242.279 -273.8)" fill="#313031"/>
      <path id="Path_5" data-name="Path 5" d="M359.058,281.313v15.5H365.6a1.315,1.315,0,0,1,.873.229.77.77,0,0,1,.257.6.78.78,0,0,1-.257.595,1.277,1.277,0,0,1-.873.238H350.849a1.237,1.237,0,0,1-.852-.238.776.776,0,0,1-.258-.595.766.766,0,0,1,.258-.6,1.274,1.274,0,0,1,.852-.229h6.543V283h-4.857a1.28,1.28,0,0,1-.863-.238.765.765,0,0,1-.267-.6.8.8,0,0,1,.257-.614,1.279,1.279,0,0,1,.873-.237Zm-.06-8.546v4.3H356.54v-4.3Z" transform="translate(-252.626 -272.767)" fill="#313031"/>
      <path id="Path_6" data-name="Path 6" d="M386.5,284.575v2.518a12.008,12.008,0,0,1,3.152-2.439,7.264,7.264,0,0,1,3.172-.675,7.426,7.426,0,0,1,3.47.813,5.7,5.7,0,0,1,2.012,1.973,5.1,5.1,0,0,1,.9,2.825v10.488h1.407a1.276,1.276,0,0,1,.852.229.766.766,0,0,1,.258.6.775.775,0,0,1-.258.595,1.239,1.239,0,0,1-.852.238h-4.461a1.273,1.273,0,0,1-.872-.238.777.777,0,0,1-.257-.595.768.768,0,0,1,.257-.6,1.311,1.311,0,0,1,.872-.229h1.388V289.868a3.949,3.949,0,0,0-1.288-2.984,4.818,4.818,0,0,0-3.45-1.22,5.84,5.84,0,0,0-2.855.665,15.353,15.353,0,0,0-3.45,3.3v10.448h1.883a1.276,1.276,0,0,1,.853.229.768.768,0,0,1,.258.6.778.778,0,0,1-.258.595,1.24,1.24,0,0,1-.853.238h-5.432a1.237,1.237,0,0,1-.852-.238.775.775,0,0,1-.258-.595.766.766,0,0,1,.258-.6,1.273,1.273,0,0,1,.852-.229h1.884V286.26h-1.408a1.238,1.238,0,0,1-.852-.238.8.8,0,0,1-.257-.615.774.774,0,0,1,.257-.595,1.242,1.242,0,0,1,.852-.238Z" transform="translate(-261.965 -276.029)" fill="#313031"/>
      <path id="Path_7" data-name="Path 7" d="M423.136,282.346h9.041a1.241,1.241,0,0,1,.852.237.8.8,0,0,1,.258.614.778.778,0,0,1-.258.6,1.237,1.237,0,0,1-.852.238h-9.041v11.083a3.03,3.03,0,0,0,1.16,2.419,5.172,5.172,0,0,0,3.4.971,14.671,14.671,0,0,0,3.648-.505,12.309,12.309,0,0,0,3.053-1.14,1.308,1.308,0,0,1,.654-.257.751.751,0,0,1,.555.247.821.821,0,0,1,.238.585.777.777,0,0,1-.257.556,8.3,8.3,0,0,1-3.083,1.417,15.765,15.765,0,0,1-4.689.763,7.257,7.257,0,0,1-4.64-1.368,4.458,4.458,0,0,1-1.725-3.687V284.031h-3.073a1.235,1.235,0,0,1-.852-.238.8.8,0,0,1-.258-.615.775.775,0,0,1,.258-.595,1.239,1.239,0,0,1,.852-.237h3.073v-4.917a1.24,1.24,0,0,1,.238-.852.779.779,0,0,1,.595-.258.8.8,0,0,1,.615.258,1.24,1.24,0,0,1,.238.852Z" transform="translate(-272.272 -273.8)" fill="#313031"/>
      <path id="Path_8" data-name="Path 8" d="M465.693,301.745v-2.4a11.849,11.849,0,0,1-7.752,3.053,6.744,6.744,0,0,1-4.679-1.517,4.809,4.809,0,0,1-1.686-3.717,5.326,5.326,0,0,1,2.221-4.224q2.221-1.8,6.484-1.8a22.716,22.716,0,0,1,2.5.149q1.348.149,2.914.465v-2.7a2.977,2.977,0,0,0-1.269-2.38,6.032,6.032,0,0,0-3.806-1.011,19.278,19.278,0,0,0-5.452,1.13,3.716,3.716,0,0,1-.813.2.728.728,0,0,1-.545-.238.825.825,0,0,1-.228-.594.722.722,0,0,1,.2-.535,6.78,6.78,0,0,1,2.241-.813,19.837,19.837,0,0,1,4.678-.833,7.186,7.186,0,0,1,4.917,1.557,4.613,4.613,0,0,1,1.764,3.519v11.023H469.6a1.314,1.314,0,0,1,.873.229.768.768,0,0,1,.257.6.777.777,0,0,1-.257.595,1.276,1.276,0,0,1-.873.238Zm0-8.288a15.815,15.815,0,0,0-2.478-.5,22.946,22.946,0,0,0-2.755-.158,9.119,9.119,0,0,0-5.671,1.566,3.43,3.43,0,0,0-1.546,2.8,3.238,3.238,0,0,0,1.18,2.537,5.077,5.077,0,0,0,3.44,1.031,9.4,9.4,0,0,0,4.015-.862,14.441,14.441,0,0,0,3.816-2.746Z" transform="translate(-282.254 -276.029)" fill="#313031"/>
      <path id="Path_9" data-name="Path 9" d="M496.353,302.3h.41a1.4,1.4,0,0,1,1.092.522,1.995,1.995,0,0,1-.006,2.544,1.414,1.414,0,0,1-1.086.515h-.41a1.4,1.4,0,0,1-1.092-.522,2,2,0,0,1,.005-2.543A1.414,1.414,0,0,1,496.353,302.3Z" transform="translate(-300.215 -279.566)" fill="#313031"/>
      <path id="Path_10" data-name="Path 10" d="M521.051,284.575v1.685a5.973,5.973,0,0,1,4.262-2.281,3.834,3.834,0,0,1,2.26.684,5.137,5.137,0,0,1,1.626,2.072,8.714,8.714,0,0,1,2.251-2.072,4.417,4.417,0,0,1,2.29-.684,3.709,3.709,0,0,1,2.875,1.171,4.734,4.734,0,0,1,1.407,3.291v11.638h1.407a1.28,1.28,0,0,1,.854.229.77.77,0,0,1,.257.6.78.78,0,0,1-.257.595,1.243,1.243,0,0,1-.854.238h-3.072V288.6a2.97,2.97,0,0,0-.773-2.1,2.374,2.374,0,0,0-1.785-.833,3.472,3.472,0,0,0-1.924.684,9.484,9.484,0,0,0-2.3,2.687v11.043h1.388a1.273,1.273,0,0,1,.852.229.769.769,0,0,1,.258.6.778.778,0,0,1-.258.595,1.237,1.237,0,0,1-.852.238h-3.073V288.718a3.136,3.136,0,0,0-.783-2.191,2.336,2.336,0,0,0-1.755-.863,3.187,3.187,0,0,0-1.764.575,10.142,10.142,0,0,0-2.538,2.8v11.043h1.408a1.274,1.274,0,0,1,.852.229.768.768,0,0,1,.257.6.777.777,0,0,1-.257.595,1.238,1.238,0,0,1-.852.238h-4.481a1.239,1.239,0,0,1-.853-.238.775.775,0,0,1-.258-.595.766.766,0,0,1,.258-.6,1.275,1.275,0,0,1,.853-.229h1.407V286.26h-1.407a1.239,1.239,0,0,1-.853-.238.8.8,0,0,1-.258-.615.775.775,0,0,1,.258-.595,1.243,1.243,0,0,1,.853-.238Z" transform="translate(-313.772 -276.029)" fill="#313031"/>
      <path id="Path_11" data-name="Path 11" d="M564.791,293.007l7.633,7.315a3.871,3.871,0,0,1,.952.07.713.713,0,0,1,.347.288.827.827,0,0,1,.149.476.777.777,0,0,1-.257.595,1.276,1.276,0,0,1-.873.238h-5.353a1.275,1.275,0,0,1-.873-.238.777.777,0,0,1-.257-.595.768.768,0,0,1,.257-.6,1.313,1.313,0,0,1,.873-.229h2.755l-6.483-6.206-6.443,6.206h2.775a1.273,1.273,0,0,1,.852.229.769.769,0,0,1,.258.6.778.778,0,0,1-.258.595,1.237,1.237,0,0,1-.852.238H554.58a1.239,1.239,0,0,1-.852-.238.777.777,0,0,1-.257-.595.822.822,0,0,1,.149-.476.724.724,0,0,1,.336-.288,3.733,3.733,0,0,1,.942-.07l7.634-7.315-6.78-6.5a3.022,3.022,0,0,1-.9-.079.788.788,0,0,1-.338-.3.833.833,0,0,1-.148-.477.775.775,0,0,1,.258-.595,1.276,1.276,0,0,1,.871-.237h4.541a1.237,1.237,0,0,1,.862.237.815.815,0,0,1,.248.614.792.792,0,0,1-.248.6,1.233,1.233,0,0,1-.862.238H558.05l5.611,5.412,5.651-5.412h-1.983a1.278,1.278,0,0,1-.862-.238.785.785,0,0,1-.268-.615.777.777,0,0,1,.257-.595,1.28,1.28,0,0,1,.873-.237h4.54a1.241,1.241,0,0,1,.852.237.824.824,0,0,1,.109,1.071.787.787,0,0,1-.337.3,3.029,3.029,0,0,1-.9.079Z" transform="translate(-324.421 -276.273)" fill="#313031"/>
    </g>
    <path id="Path_49" data-name="Path 49" d="M848.142,526.324c16.5-1.805,30.551-2.891,39.083-.893s32.62,2.434,53.059,2.282,20.5-.4,25.607,0" transform="translate(0 -2)" fill="none" stroke="#f46a6a" stroke-linecap="round" stroke-width="2"/>
  </g>
</svg>
