<svg xmlns="http://www.w3.org/2000/svg" width="311.446" height="270.545" viewBox="0 0 311.446 270.545">
  <path id="Path_50" data-name="Path 50" d="M469.751,272.509c4.807-8.032,10.619-16.4,21.475-21.094,9.645-4.17,21.681-4.741,33.142-5.191,26.683-1.049,54.273-2.013,79.324,4.229,45.7,11.388,71.654,43.683,86.025,74.882,21.235,46.105,25.168,98.34-9.047,140.8-7.163,8.89-16.1,17.361-28.2,23.389-10.774,5.366-23.571,8.566-36.336,11.356a723.143,723.143,0,0,1-78.123,12.592c-21.962,2.327-44.456,3.68-66.382,1.208s-43.418-9.1-57.67-20.528c-25.273-20.265-22.506-50.374-10.426-75.506,11.542-24.013,29.833-46.307,35.921-71.4A265.5,265.5,0,0,1,469.751,272.509Z" transform="translate(706.031 516) rotate(180)" fill="#597ed1"/>
</svg>
