<svg xmlns="http://www.w3.org/2000/svg" width="76.058" height="66.347" viewBox="0 0 76.058 66.347">
  <g id="Group_1329" data-name="Group 1329" transform="translate(-2.466 -8.5)">
    <path id="Path_57" data-name="Path 57" d="M48.712,8.5A33.386,33.386,0,0,0,19.5,25.867h.64a10.216,10.216,0,0,1,6.483,2.321,25.882,25.882,0,1,1,7.363,34.894l-3.441,6.4A33.2,33.2,0,1,0,48.712,8.5Z" transform="translate(-3.401)" fill="#597ed1"/>
    <path id="Path_58" data-name="Path 58" d="M55.1,26.8a3.587,3.587,0,0,0-3.6,3.6V45.368a3.587,3.587,0,0,0,3.6,3.6H67.026a3.6,3.6,0,1,0,0-7.2H58.7V30.4A3.587,3.587,0,0,0,55.1,26.8Z" transform="translate(-9.791 -3.654)" fill="#597ed1"/>
    <path id="Path_59" data-name="Path 59" d="M25.783,53.542l-5.122.8a1.013,1.013,0,0,1-1.12-.96V42.1a2.82,2.82,0,0,0-5.282-1.361L2.813,62.265a2.8,2.8,0,0,0,2.881,4.082l5.122-.8a1.013,1.013,0,0,1,1.12.96V77.792a2.82,2.82,0,0,0,5.282,1.361L28.744,57.623A2.812,2.812,0,0,0,25.783,53.542Z" transform="translate(0 -6.146)" fill="#597ed1"/>
  </g>
</svg>
