<svg xmlns="http://www.w3.org/2000/svg" width="65.873" height="66.243" viewBox="0 0 65.873 66.243">
  <path id="Path_1219" data-name="Path 1219" d="M69.118,30.83l-1.39-.951a4.308,4.308,0,0,1-1.683-4.756l.439-1.61a4.376,4.376,0,0,0-3.512-5.488l-1.683-.293A4.272,4.272,0,0,1,57.7,14.221l-.293-1.683A4.332,4.332,0,0,0,51.923,9.1l-1.61.512A4.385,4.385,0,0,1,45.557,8L44.533,6.538a4.315,4.315,0,0,0-6.439-.659L36.85,7.05a4.3,4.3,0,0,1-5.049.585l-1.463-.8a4.4,4.4,0,0,0-6.146,2.2l-.659,1.61a4.2,4.2,0,0,1-4.244,2.707l-1.683-.073a4.282,4.282,0,0,0-4.536,4.61l.146,1.683a4.4,4.4,0,0,1-2.634,4.317l-1.537.659a4.372,4.372,0,0,0-2.122,6.146L7.8,32.147A4.3,4.3,0,0,1,7.29,37.2l-1.1,1.244A4.27,4.27,0,0,0,7,44.879l1.39.951a4.308,4.308,0,0,1,1.683,4.756l-.659,1.683a4.376,4.376,0,0,0,3.512,5.488l1.683.293a4.272,4.272,0,0,1,3.585,3.512l.293,1.683a4.332,4.332,0,0,0,5.488,3.439l1.61-.512a4.385,4.385,0,0,1,4.756,1.61l1.024,1.39a4.315,4.315,0,0,0,6.439.659l1.244-1.171a4.3,4.3,0,0,1,5.049-.585l1.463.8a4.4,4.4,0,0,0,6.146-2.2l.659-1.61a4.2,4.2,0,0,1,4.244-2.707l1.683.073a4.282,4.282,0,0,0,4.536-4.61l-.073-1.683a4.4,4.4,0,0,1,2.634-4.317l1.537-.659a4.372,4.372,0,0,0,2.122-6.146l-.878-1.463a4.3,4.3,0,0,1,.512-5.049l1.1-1.244A4.258,4.258,0,0,0,69.118,30.83Zm-16.39,4.317-6.8,5.561,2.049,8.414a1.822,1.822,0,0,1-1.756,2.268,1.609,1.609,0,0,1-.951-.293L37.8,46.561,30.485,51.1a1.609,1.609,0,0,1-.951.293,1.822,1.822,0,0,1-1.756-2.268L29.9,40.708l-6.732-5.561a1.84,1.84,0,0,1,1.1-3.219l8.634-.659,3.293-8.049a1.88,1.88,0,0,1,1.683-1.171,1.769,1.769,0,0,1,1.683,1.171l3.293,8.049,8.707.659A1.843,1.843,0,0,1,52.728,35.147Z" transform="translate(-5.081 -4.733)" fill="#597ed1"/>
</svg>
