<svg xmlns="http://www.w3.org/2000/svg" width="384.511" height="401.994" viewBox="0 0 384.511 401.994">
  <g id="Group_1330" data-name="Group 1330" transform="translate(-435.314 -1112.22)">
    <path id="Path_18" data-name="Path 18" d="M476.426,133.248c-25.274-32.11-67.143-52.5-109.488-71.372-122.1-54.406-214.454-44.607-170.23,71.372Z" transform="translate(249.849 1082.252)" fill="#3f3d56"/>
    <path id="Path_19" data-name="Path 19" d="M379.809,558.985c20.345,32.674,44.277,56.423,85.6,56.423,43.417,0,81.989-22.139,106.387-56.423Z" transform="translate(145.379 881.209)" fill="#3f3d56"/>
    <path id="Path_1218" data-name="Path 1218" d="M375.087,172.481H282.869a1.71,1.71,0,0,1-1.708-1.708V147.9a1.71,1.71,0,0,1,1.708-1.708h92.218a1.71,1.71,0,0,1,1.708,1.708v22.876A1.71,1.71,0,0,1,375.087,172.481Zm-92.218-25.608a1.026,1.026,0,0,0-1.025,1.025v22.876a1.026,1.026,0,0,0,1.025,1.025h92.218a1.026,1.026,0,0,0,1.025-1.025V147.9a1.026,1.026,0,0,0-1.025-1.025Z" transform="translate(243.304 1119.701)" fill="#3f3d56"/>
    <circle id="Ellipse_93" data-name="Ellipse 93" cx="6.956" cy="6.956" r="6.956" transform="translate(532.521 1283.911) rotate(-80.783)" fill="#5eafe6"/>
    <path id="Path_1219" data-name="Path 1219" d="M362.268,165.9a1.159,1.159,0,0,0,0,2.319h54.658a1.159,1.159,0,0,0,0-2.319Z" transform="translate(194.3 1107.618)" fill="#e6e6e6"/>
    <path id="Path_1220" data-name="Path 1220" d="M362.266,183.876a1.159,1.159,0,1,0,0,2.319h23.519a1.159,1.159,0,0,0,0-2.319H362.266Z" transform="translate(194.302 1096.601)" fill="#e6e6e6"/>
    <path id="Path_1221" data-name="Path 1221" d="M352.782,351.779H311.8a1.71,1.71,0,0,1-1.708-1.708V307.386a1.71,1.71,0,0,1,1.708-1.708h40.986a1.71,1.71,0,0,1,1.708,1.708v42.685A1.709,1.709,0,0,1,352.782,351.779ZM311.8,306.361a1.026,1.026,0,0,0-1.025,1.025v42.685A1.025,1.025,0,0,0,311.8,351.1h40.986a1.025,1.025,0,0,0,1.025-1.025V307.386a1.026,1.026,0,0,0-1.025-1.025Z" transform="translate(225.573 1021.943)" fill="#3f3d56"/>
    <path id="Path_1222" data-name="Path 1222" d="M529.493,452.944H488.508a1.71,1.71,0,0,1-1.708-1.708V408.551a1.71,1.71,0,0,1,1.708-1.708h40.986a1.71,1.71,0,0,1,1.708,1.708v42.685A1.71,1.71,0,0,1,529.493,452.944Zm-40.986-45.418a1.026,1.026,0,0,0-1.025,1.025v42.685a1.025,1.025,0,0,0,1.025,1.025h40.986a1.026,1.026,0,0,0,1.025-1.025V408.551a1.026,1.026,0,0,0-1.025-1.025Z" transform="translate(117.258 959.934)" fill="#3f3d56"/>
    <path id="Path_1223" data-name="Path 1223" d="M335.23,328.421a1.159,1.159,0,0,0,0,2.319h23.52a1.159,1.159,0,0,0,0-2.319Z" transform="translate(210.873 1008.003)" fill="#e6e6e6"/>
    <path id="Path_1224" data-name="Path 1224" d="M335.226,346.069a1.159,1.159,0,1,0,0,2.319h23.522a1.159,1.159,0,0,0,0-2.319Z" transform="translate(210.877 997.185)" fill="#e6e6e6"/>
    <path id="Path_1225" data-name="Path 1225" d="M355.89,378.929a7.3,7.3,0,1,1,7.3-7.3h0A7.306,7.306,0,0,1,355.89,378.929Z" transform="translate(201.973 985.99)" fill="#9ed9eb"/>
    <path id="Path_1226" data-name="Path 1226" d="M591.158,58.551h40.986a1.71,1.71,0,0,1,1.708,1.708v42.685a1.71,1.71,0,0,1-1.708,1.708H591.158a1.71,1.71,0,0,1-1.708-1.708V60.259A1.71,1.71,0,0,1,591.158,58.551Zm40.986,45.418a1.026,1.026,0,0,0,1.025-1.025V60.259a1.026,1.026,0,0,0-1.025-1.025H591.158a1.026,1.026,0,0,0-1.024,1.025v42.685a1.026,1.026,0,0,0,1.024,1.025Z" transform="translate(54.339 1173.419)" fill="#3f3d56"/>
    <path id="Path_1227" data-name="Path 1227" d="M638.107,151.244a1.159,1.159,0,1,0,0-2.319H614.588a1.159,1.159,0,1,0,0,2.319h23.522Z" transform="translate(39.643 1118.024)" fill="#e6e6e6"/>
    <path id="Path_1228" data-name="Path 1228" d="M638.107,133.595a1.159,1.159,0,1,0,0-2.319H614.588a1.159,1.159,0,1,0,0,2.319h23.522Z" transform="translate(39.643 1128.842)" fill="#e6e6e6"/>
    <path id="Path_1229" data-name="Path 1229" d="M635.251,81.293a7.3,7.3,0,1,1-7.3,7.3h0A7.306,7.306,0,0,1,635.251,81.293Z" transform="translate(30.739 1159.479)" fill="#9ed9e9"/>
    <circle id="Ellipse_94" data-name="Ellipse 94" cx="4.987" cy="4.987" r="4.987" transform="translate(519.495 1314.943)" fill="#f46a6a"/>
    <circle id="Ellipse_95" data-name="Ellipse 95" cx="4.987" cy="4.987" r="4.987" transform="translate(705.039 1381.163)" fill="#f46a6a"/>
    <path id="Path_1231" data-name="Path 1231" d="M696.507,311.027H615.127a1.71,1.71,0,0,1-1.708-1.708V266.976a1.71,1.71,0,0,1,1.708-1.708h81.381a1.71,1.71,0,0,1,1.708,1.708v42.344A1.709,1.709,0,0,1,696.507,311.027Zm-81.381-45.076a1.025,1.025,0,0,0-1.025,1.025v42.344a1.025,1.025,0,0,0,1.025,1.025h81.381a1.026,1.026,0,0,0,1.025-1.025V266.976a1.026,1.026,0,0,0-1.025-1.025Z" transform="translate(39.648 1046.712)" fill="#3f3d56"/>
    <circle id="Ellipse_96" data-name="Ellipse 96" cx="6.956" cy="6.956" r="6.956" transform="translate(661.464 1320.024)" fill="#5eafe6"/>
    <path id="Path_1232" data-name="Path 1232" d="M692.757,292.041a1.159,1.159,0,0,0,0,2.319h43.823a1.159,1.159,0,1,0,0-2.319h-43.82Z" transform="translate(-8.271 1030.302)" fill="#e6e6e6"/>
    <path id="Path_1233" data-name="Path 1233" d="M692.757,310.014a1.159,1.159,0,1,0,0,2.318h23.522a1.159,1.159,0,1,0,0-2.318Z" transform="translate(-8.271 1019.285)" fill="#e6e6e6"/>
    <path id="Path_1234" data-name="Path 1234" d="M636.768,338.747c-.882,0-1.6.52-1.6,1.159s.718,1.16,1.6,1.16h64.573c.882,0,1.6-.52,1.6-1.16s-.718-1.159-1.6-1.159Z" transform="translate(26.317 1001.673)" fill="#e6e6e6"/>
    <path id="Path_1235" data-name="Path 1235" d="M636.768,356.72c-.882,0-1.6.52-1.6,1.159s.718,1.16,1.6,1.16h64.573c.882,0,1.6-.52,1.6-1.16s-.718-1.159-1.6-1.159Z" transform="translate(26.317 990.657)" fill="#e6e6e6"/>
    <path id="Path_1237" data-name="Path 1237" d="M782.495,402.573l-7.306,3.71c-2.608,1.324-5.124,1.1-6.088-1.663h0a4.831,4.831,0,0,1,3.674-6.341l6.943-1.3,29.737-9.866,18.013-12.773,6.6,10.521-20.814,11.232Z" transform="translate(-55.611 979.855)" fill="#e0b692"/>
    <path id="Path_1238" data-name="Path 1238" d="M883.392,747.228l-5.59-.932.621-10.558h5.9Z" transform="translate(-122.405 758.339)" fill="#e0b692"/>
    <path id="Path_1239" data-name="Path 1239" d="M1017.181,721.873l-5.409,1.688-4.2-9.7,5.267-2.659Z" transform="translate(-201.944 773.381)" fill="#e0b692"/>
    <path id="Path_1240" data-name="Path 1240" d="M926.3,555.548l-6.832,2.795L886.863,515.49,876.616,565.8l-6.832-1.242c-4.382-43.37-7.956-87.607-3.571-108.53l25.308-1.087,11.49,36.642,5.589,24.842Z" transform="translate(-114.077 930.455)" fill="#2f2e41"/>
    <path id="Path_1241" data-name="Path 1241" d="M870.208,767.168h0a4.908,4.908,0,0,1-3.041-.323l-3.32-1.494c-2.784-.143-4.68.412-6.23-1.611a4.062,4.062,0,0,1-.474-4.1h0a4.091,4.091,0,0,1,3.341-2.431l4.561-2.873.239,2.154c2.085,1.181,4.56.671,7.182-.479l1.431,5.01a4.9,4.9,0,0,1-3.369,6.063C870.422,767.118,870.315,767.145,870.208,767.168Z" transform="translate(-109.529 746.938)" fill="#2f2e41"/>
    <path id="Path_1242" data-name="Path 1242" d="M1014.661,743.066h0a4.9,4.9,0,0,1-2.981.682l-3.626-.335c-2.68.769-4.293,1.909-6.416.5a4.063,4.063,0,0,1-1.779-3.72h0a4.091,4.091,0,0,1,2.37-3.384l3.38-4.2.926,1.96c2.355.44,4.53-.846,6.637-2.785l2.981,4.273a4.9,4.9,0,0,1-1.217,6.829C1014.847,742.95,1014.755,743.01,1014.661,743.066Z" transform="translate(-197.211 760.762)" fill="#2f2e41"/>
    <circle id="Ellipse_97" data-name="Ellipse 97" cx="11.179" cy="11.179" r="11.179" transform="translate(756.95 1318.939)" fill="#e0b692"/>
    <path id="Path_1243" data-name="Path 1243" d="M919.934,345.566l-14.595-3.105-1.863-12.111,10.247-2.174Z" transform="translate(-138.142 1008.153)" fill="#e0b692"/>
    <path id="Path_1244" data-name="Path 1244" d="M894.26,396.422H868.175l5.88-14.761c-.427-5.079,1.725-8.815,4.806-12.068l3.909-9.813c6.316-4.157,11.077-3.846,16.147,1.552C904.929,369.844,900.768,382.638,894.26,396.422Z" transform="translate(-116.504 990.523)" fill="#5b80ce"/>
    <path id="Path_1245" data-name="Path 1245" d="M890.6,455.889l-.742,8.16c-.265,2.913-1.794,4.924-4.645,4.272h0a4.831,4.831,0,0,1-3.633-5.786,4.777,4.777,0,0,1,.216-.7l2.593-6.57,7.453-30.432L890.6,402.789h12.421l-1.552,23.6Z" transform="translate(-124.647 962.419)" fill="#e0b692"/>
    <path id="Path_1246" data-name="Path 1246" d="M916.958,379.817H902.674l1-9.318a6.464,6.464,0,0,1,6.136-6.192h0a6.464,6.464,0,0,1,6.779,6.133c0,.023,0,.046,0,.07Z" transform="translate(-137.65 986.012)" fill="#5b80ce"/>
    <circle id="Ellipse_98" data-name="Ellipse 98" cx="4.202" cy="4.202" r="4.202" transform="translate(777.763 1310.22)" fill="#2f2e41"/>
    <path id="Path_1247" data-name="Path 1247" d="M934.416,262.638a4.2,4.2,0,0,1,4.2-3.927c-.087-.011-.173-.024-.261-.03a4.2,4.2,0,0,0-.539,8.387c.088.005.175,0,.263,0A4.2,4.2,0,0,1,934.416,262.638Z" transform="translate(-156.781 1050.755)" fill="#2f2e41"/>
    <path id="Path_1248" data-name="Path 1248" d="M897.04,271.733c-3.747-3.108-14.5.843-15.19,2.933-5.068.691-8.9,3.647-8.9,8.9h0c3.013,1.234,6.439,1.082,10.143,0,5.9,4.812,6.309,10.861,2.719,17.809l4.418.088,5.476-8,.262,8.118,10.126-.2V289.745a24.321,24.321,0,0,0-2.6-11.143C901.915,275.536,899.466,273.746,897.04,271.733Z" transform="translate(-119.429 1043.454)" fill="#2f2e41"/>
    <ellipse id="Ellipse_99" data-name="Ellipse 99" cx="2.009" cy="2.813" rx="2.009" ry="2.813" transform="translate(766.172 1330.115)" fill="#e0b692"/>
    <path id="Path_1249" data-name="Path 1249" d="M257.631,301.879s1.21-20.936,7.489-16.178-2.742,18.12-2.742,18.12Z" transform="translate(257.727 1034.619)" fill="#e0b692"/>
    <path id="Path_1250" data-name="Path 1250" d="M189.783,489.058s13.948,15.659,6.144,16.735-10.874-14.752-10.874-14.752Z" transform="translate(302.213 909.541)" fill="#e0b692"/>
    <path id="Path_1251" data-name="Path 1251" d="M133.5,297.422h0a9.186,9.186,0,0,1,6.759,7.606l4.437,31.58,6.22,25.191s3.11,2.8,1.866,4.354,1.555,8.086,1.555,8.086l-7.775,2.488s-.933-6.531-2.488-6.842c-1.366-.273-16.664-41.139-20.352-51.039-.509-1.365-.8-2.142-.8-2.142S123.549,295.867,133.5,297.422Z" transform="translate(340.293 1027.054)" fill="#0e2981"/>
    <path id="Path_1252" data-name="Path 1252" d="M144.5,723.043l4.776,8.463c3.7,7.9.412,9.33-8.656,5.416l-2.067-9.993Z" transform="translate(330.717 766.12)" fill="#e0b692"/>
    <path id="Path_1253" data-name="Path 1253" d="M143.358,747.126s2.267-3.691,3.087-3.073,4.2,3.295,4.2,3.295l4.405,4.219s14.884,1.573,5.426,6.788-14.684.891-14.684.891-13.246.689-13.032-3.007,4.486-9.542,4.486-9.542S142.631,750.307,143.358,747.126Z" transform="translate(334.267 753.285)" fill="#2f2e41"/>
    <path id="Path_1254" data-name="Path 1254" d="M99.164,464.782l4.477,54.173s.149,32.385,4.925,38.653,4.925,9.4,4.925,9.4l9.85-5.074s-5.074-8.455-4.03-9.749a7.216,7.216,0,0,0,1.343-2.787l-2.687-33.429,5.074-58.2Z" transform="translate(354.859 928.72)" fill="#2f2e41"/>
    <path id="Path_1255" data-name="Path 1255" d="M116.9,740.008" transform="translate(343.988 755.722)" fill="none" stroke="#3f3d56" stroke-miterlimit="10" stroke-width="1"/>
    <path id="Path_1256" data-name="Path 1256" d="M109.156,721.152,104.977,732.2,95.5,728.234l5-8.276Z" transform="translate(357.104 768.011)" fill="#e0b692"/>
    <path id="Path_1257" data-name="Path 1257" d="M91.725,737.209s3.554-2.221,4-1.333,2.222,4.665,2.222,4.665l2,5.553s12.218,7.775,1.777,8.219-13.106-5.553-13.106-5.553-11.773-5.109-10-8.219,8-6.336,8-6.336S89.726,739.652,91.725,737.209Z" transform="translate(367.564 759.279)" fill="#2f2e41"/>
    <path id="Path_1258" data-name="Path 1258" d="M137.07,473.912l2.388,49.845s-21.789,45.07-24.176,46.264A6,6,0,0,0,112.3,573.6L99.164,570.32l5.97-9.551,13.133-31.937a5.267,5.267,0,0,0,2.687-3.88c.6-2.985,1.791-2.985-1.194-3.582a3.707,3.707,0,0,1-2.985-3.582l-9.85-45.368Z" transform="translate(354.859 919.739)" fill="#2f2e41"/>
    <circle id="Ellipse_100" data-name="Ellipse 100" cx="11.939" cy="11.939" r="11.939" transform="translate(469.245 1291.573)" fill="#e0b692"/>
    <path id="Path_1259" data-name="Path 1259" d="M138.538,245.317s-.9,15.222-2.089,16.714,12.536,1.194,12.536,1.194-.9-12.834,0-14.028S138.538,245.317,138.538,245.317Z" transform="translate(332.051 1058.941)" fill="#e0b692"/>
    <path id="Path_1260" data-name="Path 1260" d="M136.074,356.834s-33.728-2.984-39.994,0c0,0,2.307-8.558,1.711-9.452-.434-.654.762-25.031.387-39.092-.213-7.935-2.044-15.683,3.278-21.574a16.567,16.567,0,0,1,5.964-4.5s-.6-5.67,2.388-5.968c0,0,11.345-1.2,15.521,2.388,1.335,1.138,2.175,4.606,2.264,7.594-2.067,10.164-1.335,21.443.561,33.143.116.743.244,1.49.372,2.237C130.539,333.212,133.582,345.176,136.074,356.834Z" transform="translate(356.749 1040.101)" fill="#5b80ce"/>
    <path id="Path_1261" data-name="Path 1261" d="M140.873,218.09a15.88,15.88,0,0,1,3,.414,7.589,7.589,0,0,0,8.111-5.658,4.335,4.335,0,0,1,.415-1.352,2.678,2.678,0,0,1,2.846-.866,21.94,21.94,0,0,0,3.074.748,4.708,4.708,0,0,0,4.063-2.3,7.8,7.8,0,0,0,1-4.71l-.781.82a3.97,3.97,0,0,1-.354-2.157,2.5,2.5,0,0,0-2.371.607c-.689.074-.169-1.278-.681-1.745a1.184,1.184,0,0,0-.833-.156c-1.466.014-2.651-1.107-3.807-2.01a16.173,16.173,0,0,0-6.831-3.116,8.986,8.986,0,0,0-4.985.242,10.641,10.641,0,0,0-3.366,2.388,20.546,20.546,0,0,0-5.656,8.391,14.125,14.125,0,0,0-.068,8.191c.412,1.39,1.653,6.152,3.471,6.263C139.4,222.224,138.03,218.259,140.873,218.09Z" transform="translate(334.074 1088.94)" fill="#2f2e41"/>
    <path id="Path_1262" data-name="Path 1262" d="M152.763,301.339l4.277.458s4.2,8.146,3.894,9.845-.969.668.921,3.386,7.253,9.745,7.917,10.777,18.767-12.781,17.642-16.92c0,0,5.718,4.1,8.167,4.648,0,0-18.657,24.469-21.257,27.6s-4.693,2.488-8.266.631-21.649-20.376-21.649-20.376Z" transform="translate(327.126 1024.603)" fill="#5b80ce"/>
    <path id="Path_1263" data-name="Path 1263" d="M156.367,368.263,141.5,353.4l3.762-1.227L156,366.025C156.111,366.769,156.239,367.516,156.367,368.263Z" transform="translate(328.909 993.446)" opacity="0.25" style="isolation: isolate"/>
    <rect id="Rectangle_17" data-name="Rectangle 17" width="23.314" height="29.975" transform="matrix(0.984, -0.18, 0.18, 0.984, 611.253, 1378.038)" fill="#e6e6e6"/>
    <rect id="Rectangle_18" data-name="Rectangle 18" width="17.218" height="1.131" transform="matrix(0.984, -0.18, 0.18, 0.984, 615.218, 1382.775)" fill="#fff"/>
    <rect id="Rectangle_19" data-name="Rectangle 19" width="17.218" height="1.131" transform="matrix(0.984, -0.18, 0.18, 0.984, 615.761, 1385.742)" fill="#fff"/>
    <rect id="Rectangle_20" data-name="Rectangle 20" width="17.218" height="1.131" transform="matrix(0.984, -0.18, 0.18, 0.984, 616.304, 1388.709)" fill="#fff"/>
    <rect id="Rectangle_21" data-name="Rectangle 21" width="17.218" height="1.131" transform="matrix(0.984, -0.18, 0.18, 0.984, 616.847, 1391.676)" fill="#fff"/>
    <rect id="Rectangle_22" data-name="Rectangle 22" width="17.218" height="1.131" transform="matrix(0.984, -0.18, 0.18, 0.984, 617.39, 1394.643)" fill="#fff"/>
    <rect id="Rectangle_23" data-name="Rectangle 23" width="17.218" height="1.131" transform="matrix(0.984, -0.18, 0.18, 0.984, 617.933, 1397.61)" fill="#fff"/>
    <rect id="Rectangle_24" data-name="Rectangle 24" width="17.218" height="1.131" transform="matrix(0.984, -0.18, 0.18, 0.984, 618.476, 1400.577)" fill="#fff"/>
    <path id="Path_1264" data-name="Path 1264" d="M659.46,433.873c-13.482,3.7-40.078-12-32.214-14.377s-8.272,22.471-25.717,17.452" transform="translate(46.935 952.277)" fill="#fae8e8" stroke="#f46a6a" stroke-width="1"/>
    <path id="Path_1265" data-name="Path 1265" d="M282.722,249.643s58.206-15.7,41.05-21.724-15.125,35.239,87.357,33.873" transform="translate(242.348 1069.973)" fill="#fae8e8" stroke="#f46a6a" stroke-width="1"/>
  </g>
</svg>
